<svg width="16" height="36" viewBox="0 0 16 36" fill="none" xmlns="http://www.w3.org/2000/svg">
<path fill-rule="evenodd" clip-rule="evenodd" d="M4.51706 0C2.28691 0 0.836424 2.34694 1.83378 4.34164L2.83378 6.34164C3.34195 7.35799 4.38074 8 5.51706 8H9.80885C10.9452 8 11.984 7.35799 12.4921 6.34164L13.4921 4.34164C14.4895 2.34694 13.039 0 10.8089 0H4.51706ZM6.18559 9C4.72735 9 3.48031 10.0486 3.23009 11.4852L0.0446779 29.7734C-0.182039 31.0751 0.469496 32.3718 1.64917 32.9668L6.31195 35.3186C7.16164 35.7471 8.16427 35.7472 9.01396 35.3186L13.6767 32.9668C14.8564 32.3718 15.5079 31.0751 15.2812 29.7734L12.0958 11.4852C11.8456 10.0486 10.5986 9 9.14032 9H6.18559Z" fill="url(#paint0_linear_279_1213)"/>
<defs>
<linearGradient id="paint0_linear_279_1213" x1="9.75172" y1="0" x2="9.75172" y2="48.4418" gradientUnits="userSpaceOnUse">
<stop stop-color="#61279E"/>
<stop offset="0.564" stop-color="#9C3FFF"/>
</linearGradient>
</defs>
</svg>
