<svg width="45" height="45" viewBox="0 0 45 45" fill="none" xmlns="http://www.w3.org/2000/svg">
<rect width="45" height="45" rx="22.5" fill="white"/>
<path fill-rule="evenodd" clip-rule="evenodd" d="M19.3549 4.67969C17.1248 4.67969 15.6743 7.02662 16.6717 9.02133L17.6717 11.0213C18.1798 12.0377 19.2186 12.6797 20.3549 12.6797H24.6467C25.7831 12.6797 26.8218 12.0377 27.33 11.0213L28.33 9.02133C29.3274 7.02662 27.8769 4.67969 25.6467 4.67969H19.3549ZM21.0235 13.6797C19.5652 13.6797 18.3182 14.7283 18.068 16.1649L14.8826 34.4531C14.6559 35.7548 15.3074 37.0515 16.4871 37.6465L21.1498 39.9983C21.9995 40.4268 23.0022 40.4268 23.8519 39.9983L28.5146 37.6465C29.6943 37.0515 30.3458 35.7548 30.1191 34.4531L26.9337 16.1649C26.6835 14.7283 25.4365 13.6797 23.9782 13.6797H21.0235Z" fill="url(#paint0_linear_363_569)"/>
<defs>
<linearGradient id="paint0_linear_363_569" x1="24.5896" y1="4.67969" x2="24.5896" y2="53.1214" gradientUnits="userSpaceOnUse">
<stop stop-color="#61279E"/>
<stop offset="0.564" stop-color="#9C3FFF"/>
</linearGradient>
</defs>
</svg>
